<svg xmlns="http://www.w3.org/2000/svg" width="1200" height="630" viewBox="0 0 1200 630" role="img" aria-labelledby="title desc"><title id="title">إبريق تبخير الحليب</title><desc id="desc">حجم مناسب ← مساحة تمدد ← فوهة صب. رسم تعليمي توضيحي.</desc><rect width="1200" height="630" fill="#f7f5f1"/><g fill="#382f2c" font-family="Arial, sans-serif"><text x="80" y="60" font-size="18" letter-spacing="3">GOAT JOURNEY / ACADEMY</text><text x="1120" y="110" text-anchor="start" direction="rtl" font-size="34" font-weight="bold">إبريق تبخير الحليب</text><path d="M180 220h140l-15 160q-50 25-100 0zM180 220l-30-20 35 65M320 245h35q45 65-45 85" fill="#c4b8ac" stroke="#382f2c" stroke-width="5"/><rect x="490" y="198" width="625" height="68" rx="17" fill="#d7d1cb"/><text x="1060" y="242" text-anchor="start" direction="rtl" font-size="27">حجم مناسب</text><circle cx="1100" cy="232" r="12" fill="#382f2c"/><rect x="490" y="287" width="625" height="68" rx="17" fill="#c4b8ac"/><text x="1060" y="331" text-anchor="start" direction="rtl" font-size="27">مساحة تمدد</text><circle cx="1100" cy="321" r="12" fill="#382f2c"/><rect x="490" y="376" width="625" height="68" rx="17" fill="#decfa6"/><text x="1060" y="420" text-anchor="start" direction="rtl" font-size="27">فوهة صب</text><circle cx="1100" cy="410" r="12" fill="#382f2c"/><path d="M80 510h1040" stroke="#c4b8ac"/><text x="1120" y="560" text-anchor="start" direction="rtl" font-size="22">القياس والتحضير · تعلّم، جرّب، وسجّل النتيجة</text><text x="80" y="600" font-size="16">milk-pitcher</text></g></svg>